<svg width="24" height="25" viewBox="0 0 24 25" fill="none" xmlns="http://www.w3.org/2000/svg">
<g clip-path="url(#clip0_1_759)">
<path fill-rule="evenodd" clip-rule="evenodd" d="M12.7252 5.79218C13.8536 4.40674 15.4222 4.3999 15.4222 4.3999C15.4222 4.3999 15.6555 5.70255 14.5346 6.95762C13.3376 8.29759 11.9773 8.07838 11.9773 8.07838C11.9773 8.07838 11.7217 7.02438 12.7252 5.79218Z" fill="#C7CBCF"/>
<path fill-rule="evenodd" clip-rule="evenodd" d="M12.1201 8.99185C12.7007 8.99185 13.7778 8.24854 15.1802 8.24854C17.594 8.24854 18.5436 9.84872 18.5436 9.84872C18.5436 9.84872 16.6864 10.7334 16.6864 12.8801C16.6864 15.3016 19.0001 16.1362 19.0001 16.1362C19.0001 16.1362 17.3827 20.3774 15.1983 20.3774C14.1948 20.3774 13.415 19.7474 12.3576 19.7474C11.2802 19.7474 10.2113 20.4008 9.51504 20.4008C7.5202 20.4011 5.00006 16.378 5.00006 13.144C5.00006 9.96227 7.13314 8.29322 9.1339 8.29322C10.4347 8.29296 11.4442 8.99185 12.1201 8.99185Z" fill="#C7CBCF"/>
</g>
<defs>
<clipPath id="clip0_1_759">
<rect width="14" height="16" fill="white" transform="translate(5.00006 4.3999)"/>
</clipPath>
</defs>
</svg>
