<svg width="32" height="32" viewBox="0 0 32 32" fill="none" xmlns="http://www.w3.org/2000/svg">
<path d="M14.8 17.2H22M22 11.2H20.74C19.8011 11.2 18.9007 11.573 18.2368 12.2368C17.573 12.9007 17.2 13.8011 17.2 14.74V28M10 4H22.0053C22.7926 4 23.5721 4.15506 24.2994 4.45632C25.0267 4.75758 25.6875 5.19914 26.2442 5.7558C26.8009 6.31245 27.2424 6.9733 27.5437 7.70061C27.8449 8.42791 28 9.20744 28 9.99467V22.0067C27.9996 23.5963 27.3679 25.1207 26.2437 26.2447C25.1196 27.3686 23.595 28 22.0053 28H9.99467C8.40478 28 6.88002 27.3684 5.7558 26.2442C4.63158 25.12 4 23.5952 4 22.0053V10C4 8.4087 4.63214 6.88258 5.75736 5.75736C6.88258 4.63214 8.4087 4 10 4Z" stroke="#202020" stroke-width="2" stroke-linecap="round" stroke-linejoin="round"/>
</svg>
