<svg width="32" height="32" viewBox="0 0 32 32" fill="none" xmlns="http://www.w3.org/2000/svg">
<path fill-rule="evenodd" clip-rule="evenodd" d="M9.99467 4H22.0067C22.7938 4 23.5733 4.15507 24.3005 4.45634C25.0278 4.75762 25.6885 5.1992 26.2451 5.75588C26.8016 6.31255 27.2431 6.97341 27.5442 7.70071C27.8453 8.42801 28.0002 9.2075 28 9.99467V22.0067C28 22.7938 27.8449 23.5733 27.5437 24.3005C27.2424 25.0278 26.8008 25.6885 26.2441 26.2451C25.6874 26.8016 25.0266 27.2431 24.2993 27.5442C23.572 27.8453 22.7925 28.0002 22.0053 28H9.99467C9.20739 28.0002 8.42779 27.8452 7.7004 27.544C6.97301 27.2428 6.3121 26.8013 5.75541 26.2446C5.19872 25.6879 4.75716 25.027 4.45596 24.2996C4.15476 23.5722 3.99982 22.7926 4 22.0053V9.99467C3.99982 9.20739 4.15476 8.42779 4.45596 7.7004C4.75716 6.97301 5.19872 6.3121 5.75541 5.75541C6.3121 5.19872 6.97301 4.75716 7.7004 4.45596C8.42779 4.15476 9.20739 3.99982 9.99467 4Z" stroke="#202020" stroke-width="2" stroke-linecap="round" stroke-linejoin="round"/>
<path d="M22.5985 8.95061C22.5366 8.94603 22.4744 8.95429 22.4158 8.97488C22.3572 8.99547 22.3035 9.02795 22.2581 9.07028C22.2126 9.1126 22.1764 9.16386 22.1517 9.22084C22.1271 9.27782 22.1144 9.33929 22.1146 9.40139C22.1148 9.46349 22.1278 9.52488 22.1528 9.58171C22.1778 9.63854 22.2144 9.68958 22.26 9.73164C22.3057 9.77369 22.3596 9.80585 22.4183 9.8261C22.477 9.84634 22.5393 9.85423 22.6012 9.84928C22.7144 9.84022 22.82 9.78879 22.8968 9.70525C22.9737 9.62172 23.0163 9.51224 23.0159 9.39871C23.0156 9.28518 22.9724 9.17596 22.895 9.09288C22.8176 9.00981 22.7118 8.959 22.5985 8.95061Z" stroke="#202020" stroke-width="2" stroke-linecap="round" stroke-linejoin="round"/>
<path fill-rule="evenodd" clip-rule="evenodd" d="M19.3947 12.6053C19.8405 13.0511 20.1941 13.5804 20.4353 14.1628C20.6766 14.7453 20.8008 15.3696 20.8008 16C20.8008 16.6305 20.6766 17.2547 20.4353 17.8372C20.1941 18.4196 19.8405 18.9489 19.3947 19.3947C18.9489 19.8405 18.4196 20.1941 17.8372 20.4353C17.2547 20.6766 16.6305 20.8008 16 20.8008C15.3696 20.8008 14.7453 20.6766 14.1628 20.4353C13.5804 20.1941 13.0511 19.8405 12.6053 19.3947C11.705 18.4943 11.1992 17.2732 11.1992 16C11.1992 14.7268 11.705 13.5057 12.6053 12.6053C13.5057 11.705 14.7268 11.1992 16 11.1992C17.2732 11.1992 18.4943 11.705 19.3947 12.6053Z" stroke="#202020" stroke-width="2" stroke-linecap="round" stroke-linejoin="round"/>
</svg>
