<svg width="32" height="32" viewBox="0 0 32 32" fill="none" xmlns="http://www.w3.org/2000/svg">
<path d="M10.8267 14.8V22M15.6253 22V17.8C15.6253 17.0044 15.9414 16.2413 16.504 15.6787C17.0666 15.1161 17.8297 14.8 18.6253 14.8C19.421 14.8 20.184 15.1161 20.7467 15.6787C21.3093 16.2413 21.6253 17.0044 21.6253 17.8V22M10 4H22.0053C22.7926 4 23.5721 4.15506 24.2994 4.45632C25.0267 4.75758 25.6875 5.19914 26.2442 5.7558C26.8009 6.31245 27.2424 6.9733 27.5437 7.70061C27.8449 8.42791 28 9.20744 28 9.99467V22.0067C27.9996 23.5963 27.3679 25.1207 26.2437 26.2447C25.1196 27.3686 23.595 28 22.0053 28H9.99467C8.40478 28 6.88002 27.3684 5.7558 26.2442C4.63158 25.12 4 23.5952 4 22.0053V10C4 8.4087 4.63214 6.88258 5.75736 5.75736C6.88258 4.63214 8.4087 4 10 4Z" stroke="#202020" stroke-width="2" stroke-linecap="round" stroke-linejoin="round"/>
<path d="M10.824 10.4507C10.7647 10.451 10.7068 10.4688 10.6577 10.5019C10.6085 10.535 10.5703 10.582 10.5478 10.6368C10.5253 10.6916 10.5195 10.7519 10.5313 10.81C10.543 10.8681 10.5717 10.9215 10.6137 10.9633C10.6557 11.0051 10.7091 11.0335 10.7673 11.045C10.8254 11.0565 10.8857 11.0505 10.9404 11.0277C10.9952 11.005 11.042 10.9665 11.0749 10.9172C11.1078 10.8679 11.1253 10.81 11.1253 10.7507C11.1253 10.7112 11.1175 10.6721 11.1024 10.6356C11.0872 10.5991 11.065 10.566 11.037 10.5381C11.009 10.5102 10.9758 10.4881 10.9392 10.4731C10.9027 10.4581 10.8635 10.4505 10.824 10.4507" stroke="#202020" stroke-linecap="round" stroke-linejoin="round"/>
</svg>
