<svg width="24" height="25" viewBox="0 0 24 25" fill="none" xmlns="http://www.w3.org/2000/svg">
<path d="M12.8339 12.2007L15.2772 9.6915L6.54066 4.59843C6.07988 4.3307 5.67367 4.34938 5.39478 4.56107L12.8339 12.2007Z" fill="#C7CBCF"/>
<path d="M5.2002 4.75049C5.07288 4.93728 5.00012 5.19255 5.00012 5.51632V19.2825C5.00012 19.6001 5.07288 19.8554 5.2002 20.0422L12.6514 12.3901L5.2002 4.75049Z" fill="#C7CBCF"/>
<path d="M12.8407 12.5957L5.40161 20.2415C5.68657 20.4532 6.08671 20.4657 6.54143 20.1979L15.278 15.0987L12.8407 12.5957Z" fill="#C7CBCF"/>
<path d="M18.3628 11.495L15.5193 9.83887L13.0274 12.3979L15.5193 14.9568L18.3688 13.2944C19.2116 12.8026 19.2116 11.9931 18.3628 11.495Z" fill="#C7CBCF"/>
</svg>
